<svg xmlns="http://www.w3.org/2000/svg" version="1.1" xmlns:xlink="http://www.w3.org/1999/xlink" xmlns:svgjs="http://svgjs.dev/svgjs" viewBox="0 0 800 800" opacity="0.51" width="800" height="800"><g stroke-width="2.25" stroke="hsla(37, 91%, 55%, 1.00)" fill="none"><rect width="10.526315789473685" height="10.526315789473685" x="-5.2631578947368425" y="-5.2631578947368425" transform="rotate(45, 0, 0)"></rect><rect width="10.526315789473685" height="10.526315789473685" x="39.1812865497076" y="-5.2631578947368425" transform="rotate(45, 44.44444444444444, 0)"></rect><rect width="10.526315789473685" height="10.526315789473685" x="83.62573099415204" y="-5.2631578947368425" transform="rotate(45, 88.88888888888889, 0)"></rect><rect width="10.526315789473685" height="10.526315789473685" x="128.07017543859646" y="-5.2631578947368425" transform="rotate(45, 133.33333333333331, 0)"></rect><rect width="10.526315789473685" height="10.526315789473685" x="172.51461988304092" y="-5.2631578947368425" transform="rotate(45, 177.77777777777777, 0)"></rect><rect width="10.526315789473685" height="10.526315789473685" x="216.95906432748538" y="-5.2631578947368425" transform="rotate(45, 222.22222222222223, 0)"></rect><rect width="10.526315789473685" height="10.526315789473685" x="261.40350877192986" y="-5.2631578947368425" transform="rotate(45, 266.6666666666667, 0)"></rect><rect width="10.526315789473685" height="10.526315789473685" x="305.8479532163743" y="-5.2631578947368425" transform="rotate(45, 311.11111111111114, 0)"></rect><rect width="10.526315789473685" height="10.526315789473685" x="350.2923976608188" y="-5.2631578947368425" transform="rotate(45, 355.5555555555556, 0)"></rect><rect width="10.526315789473685" height="10.526315789473685" x="394.73684210526324" y="-5.2631578947368425" transform="rotate(45, 400.00000000000006, 0)"></rect><rect width="10.526315789473685" height="10.526315789473685" x="439.1812865497077" y="-5.2631578947368425" transform="rotate(45, 444.4444444444445, 0)"></rect><rect width="10.526315789473685" height="10.526315789473685" x="483.62573099415215" y="-5.2631578947368425" transform="rotate(45, 488.88888888888897, 0)"></rect><rect width="10.526315789473685" height="10.526315789473685" x="528.0701754385965" y="-5.2631578947368425" transform="rotate(45, 533.3333333333334, 0)"></rect><rect width="10.526315789473685" height="10.526315789473685" x="572.514619883041" y="-5.2631578947368425" transform="rotate(45, 577.7777777777778, 0)"></rect><rect width="10.526315789473685" height="10.526315789473685" x="616.9590643274854" y="-5.2631578947368425" transform="rotate(45, 622.2222222222223, 0)"></rect><rect width="10.526315789473685" height="10.526315789473685" x="661.4035087719299" y="-5.2631578947368425" transform="rotate(45, 666.6666666666667, 0)"></rect><rect width="10.526315789473685" height="10.526315789473685" x="705.8479532163743" y="-5.2631578947368425" transform="rotate(45, 711.1111111111112, 0)"></rect><rect width="10.526315789473685" height="10.526315789473685" x="750.2923976608188" y="-5.2631578947368425" transform="rotate(45, 755.5555555555557, 0)"></rect><rect width="10.526315789473685" height="10.526315789473685" x="794.7368421052632" y="-5.2631578947368425" transform="rotate(45, 800.0000000000001, 0)"></rect><rect width="10.526315789473685" height="10.526315789473685" x="-5.2631578947368425" y="39.1812865497076" transform="rotate(45, 0, 44.44444444444444)"></rect><rect width="10.526315789473685" height="10.526315789473685" x="39.1812865497076" y="39.1812865497076" transform="rotate(45, 44.44444444444444, 44.44444444444444)"></rect><rect width="10.526315789473685" height="10.526315789473685" x="83.62573099415204" y="39.1812865497076" transform="rotate(45, 88.88888888888889, 44.44444444444444)"></rect><rect width="10.526315789473685" height="10.526315789473685" x="128.07017543859646" y="39.1812865497076" fill="hsla(37, 91%, 55%, 1.00)" stroke="none" transform="rotate(45, 133.33333333333331, 44.44444444444444)"></rect><rect width="10.526315789473685" height="10.526315789473685" x="172.51461988304092" y="39.1812865497076" transform="rotate(45, 177.77777777777777, 44.44444444444444)"></rect><rect width="10.526315789473685" height="10.526315789473685" x="216.95906432748538" y="39.1812865497076" fill="hsla(37, 91%, 55%, 1.00)" stroke="none" transform="rotate(45, 222.22222222222223, 44.44444444444444)"></rect><rect width="10.526315789473685" height="10.526315789473685" x="261.40350877192986" y="39.1812865497076" transform="rotate(45, 266.6666666666667, 44.44444444444444)"></rect><rect width="10.526315789473685" height="10.526315789473685" x="305.8479532163743" y="39.1812865497076" fill="hsla(37, 91%, 55%, 1.00)" stroke="none" transform="rotate(45, 311.11111111111114, 44.44444444444444)"></rect><rect width="10.526315789473685" height="10.526315789473685" x="350.2923976608188" y="39.1812865497076" transform="rotate(45, 355.5555555555556, 44.44444444444444)"></rect><rect width="10.526315789473685" height="10.526315789473685" x="394.73684210526324" y="39.1812865497076" transform="rotate(45, 400.00000000000006, 44.44444444444444)"></rect><rect width="10.526315789473685" height="10.526315789473685" x="439.1812865497077" y="39.1812865497076" transform="rotate(45, 444.4444444444445, 44.44444444444444)"></rect><rect width="10.526315789473685" height="10.526315789473685" x="483.62573099415215" y="39.1812865497076" transform="rotate(45, 488.88888888888897, 44.44444444444444)"></rect><rect width="10.526315789473685" height="10.526315789473685" x="528.0701754385965" y="39.1812865497076" transform="rotate(45, 533.3333333333334, 44.44444444444444)"></rect><rect width="10.526315789473685" height="10.526315789473685" x="572.514619883041" y="39.1812865497076" transform="rotate(45, 577.7777777777778, 44.44444444444444)"></rect><rect width="10.526315789473685" height="10.526315789473685" x="616.9590643274854" y="39.1812865497076" fill="hsla(37, 91%, 55%, 1.00)" stroke="none" transform="rotate(45, 622.2222222222223, 44.44444444444444)"></rect><rect width="10.526315789473685" height="10.526315789473685" x="661.4035087719299" y="39.1812865497076" transform="rotate(45, 666.6666666666667, 44.44444444444444)"></rect><rect width="10.526315789473685" height="10.526315789473685" x="705.8479532163743" y="39.1812865497076" transform="rotate(45, 711.1111111111112, 44.44444444444444)"></rect><rect width="10.526315789473685" height="10.526315789473685" x="750.2923976608188" y="39.1812865497076" transform="rotate(45, 755.5555555555557, 44.44444444444444)"></rect><rect width="10.526315789473685" height="10.526315789473685" x="794.7368421052632" y="39.1812865497076" transform="rotate(45, 800.0000000000001, 44.44444444444444)"></rect><rect width="10.526315789473685" height="10.526315789473685" x="-5.2631578947368425" y="83.62573099415204" transform="rotate(45, 0, 88.88888888888889)"></rect><rect width="10.526315789473685" height="10.526315789473685" x="39.1812865497076" y="83.62573099415204" fill="hsla(37, 91%, 55%, 1.00)" stroke="none" transform="rotate(45, 44.44444444444444, 88.88888888888889)"></rect><rect width="10.526315789473685" height="10.526315789473685" x="83.62573099415204" y="83.62573099415204" transform="rotate(45, 88.88888888888889, 88.88888888888889)"></rect><rect width="10.526315789473685" height="10.526315789473685" x="128.07017543859646" y="83.62573099415204" transform="rotate(45, 133.33333333333331, 88.88888888888889)"></rect><rect width="10.526315789473685" height="10.526315789473685" x="172.51461988304092" y="83.62573099415204" transform="rotate(45, 177.77777777777777, 88.88888888888889)"></rect><rect width="10.526315789473685" height="10.526315789473685" x="216.95906432748538" y="83.62573099415204" fill="hsla(37, 91%, 55%, 1.00)" stroke="none" transform="rotate(45, 222.22222222222223, 88.88888888888889)"></rect><rect width="10.526315789473685" height="10.526315789473685" x="261.40350877192986" y="83.62573099415204" transform="rotate(45, 266.6666666666667, 88.88888888888889)"></rect><rect width="10.526315789473685" height="10.526315789473685" x="305.8479532163743" y="83.62573099415204" transform="rotate(45, 311.11111111111114, 88.88888888888889)"></rect><rect width="10.526315789473685" height="10.526315789473685" x="350.2923976608188" y="83.62573099415204" transform="rotate(45, 355.5555555555556, 88.88888888888889)"></rect><rect width="10.526315789473685" height="10.526315789473685" x="394.73684210526324" y="83.62573099415204" transform="rotate(45, 400.00000000000006, 88.88888888888889)"></rect><rect width="10.526315789473685" height="10.526315789473685" x="439.1812865497077" y="83.62573099415204" fill="hsla(37, 91%, 55%, 1.00)" stroke="none" transform="rotate(45, 444.4444444444445, 88.88888888888889)"></rect><rect width="10.526315789473685" height="10.526315789473685" x="483.62573099415215" y="83.62573099415204" transform="rotate(45, 488.88888888888897, 88.88888888888889)"></rect><rect width="10.526315789473685" height="10.526315789473685" x="528.0701754385965" y="83.62573099415204" fill="hsla(37, 91%, 55%, 1.00)" stroke="none" transform="rotate(45, 533.3333333333334, 88.88888888888889)"></rect><rect width="10.526315789473685" height="10.526315789473685" x="572.514619883041" y="83.62573099415204" transform="rotate(45, 577.7777777777778, 88.88888888888889)"></rect><rect width="10.526315789473685" height="10.526315789473685" x="616.9590643274854" y="83.62573099415204" fill="hsla(37, 91%, 55%, 1.00)" stroke="none" transform="rotate(45, 622.2222222222223, 88.88888888888889)"></rect><rect width="10.526315789473685" height="10.526315789473685" x="661.4035087719299" y="83.62573099415204" transform="rotate(45, 666.6666666666667, 88.88888888888889)"></rect><rect width="10.526315789473685" height="10.526315789473685" x="705.8479532163743" y="83.62573099415204" fill="hsla(37, 91%, 55%, 1.00)" stroke="none" transform="rotate(45, 711.1111111111112, 88.88888888888889)"></rect><rect width="10.526315789473685" height="10.526315789473685" x="750.2923976608188" y="83.62573099415204" fill="hsla(37, 91%, 55%, 1.00)" stroke="none" transform="rotate(45, 755.5555555555557, 88.88888888888889)"></rect><rect width="10.526315789473685" height="10.526315789473685" x="794.7368421052632" y="83.62573099415204" transform="rotate(45, 800.0000000000001, 88.88888888888889)"></rect><rect width="10.526315789473685" height="10.526315789473685" x="-5.2631578947368425" y="128.07017543859646" transform="rotate(45, 0, 133.33333333333331)"></rect><rect width="10.526315789473685" height="10.526315789473685" x="39.1812865497076" y="128.07017543859646" transform="rotate(45, 44.44444444444444, 133.33333333333331)"></rect><rect width="10.526315789473685" height="10.526315789473685" x="83.62573099415204" y="128.07017543859646" transform="rotate(45, 88.88888888888889, 133.33333333333331)"></rect><rect width="10.526315789473685" height="10.526315789473685" x="128.07017543859646" y="128.07017543859646" transform="rotate(45, 133.33333333333331, 133.33333333333331)"></rect><rect width="10.526315789473685" height="10.526315789473685" x="172.51461988304092" y="128.07017543859646" transform="rotate(45, 177.77777777777777, 133.33333333333331)"></rect><rect width="10.526315789473685" height="10.526315789473685" x="216.95906432748538" y="128.07017543859646" transform="rotate(45, 222.22222222222223, 133.33333333333331)"></rect><rect width="10.526315789473685" height="10.526315789473685" x="261.40350877192986" y="128.07017543859646" transform="rotate(45, 266.6666666666667, 133.33333333333331)"></rect><rect width="10.526315789473685" height="10.526315789473685" x="305.8479532163743" y="128.07017543859646" fill="hsla(37, 91%, 55%, 1.00)" stroke="none" transform="rotate(45, 311.11111111111114, 133.33333333333331)"></rect><rect width="10.526315789473685" height="10.526315789473685" x="350.2923976608188" y="128.07017543859646" transform="rotate(45, 355.5555555555556, 133.33333333333331)"></rect><rect width="10.526315789473685" height="10.526315789473685" x="394.73684210526324" y="128.07017543859646" transform="rotate(45, 400.00000000000006, 133.33333333333331)"></rect><rect width="10.526315789473685" height="10.526315789473685" x="439.1812865497077" y="128.07017543859646" transform="rotate(45, 444.4444444444445, 133.33333333333331)"></rect><rect width="10.526315789473685" height="10.526315789473685" x="483.62573099415215" y="128.07017543859646" transform="rotate(45, 488.88888888888897, 133.33333333333331)"></rect><rect width="10.526315789473685" height="10.526315789473685" x="528.0701754385965" y="128.07017543859646" transform="rotate(45, 533.3333333333334, 133.33333333333331)"></rect><rect width="10.526315789473685" height="10.526315789473685" x="572.514619883041" y="128.07017543859646" transform="rotate(45, 577.7777777777778, 133.33333333333331)"></rect><rect width="10.526315789473685" height="10.526315789473685" x="616.9590643274854" y="128.07017543859646" transform="rotate(45, 622.2222222222223, 133.33333333333331)"></rect><rect width="10.526315789473685" height="10.526315789473685" x="661.4035087719299" y="128.07017543859646" transform="rotate(45, 666.6666666666667, 133.33333333333331)"></rect><rect width="10.526315789473685" height="10.526315789473685" x="705.8479532163743" y="128.07017543859646" transform="rotate(45, 711.1111111111112, 133.33333333333331)"></rect><rect width="10.526315789473685" height="10.526315789473685" x="750.2923976608188" y="128.07017543859646" transform="rotate(45, 755.5555555555557, 133.33333333333331)"></rect><rect width="10.526315789473685" height="10.526315789473685" x="794.7368421052632" y="128.07017543859646" transform="rotate(45, 800.0000000000001, 133.33333333333331)"></rect><rect width="10.526315789473685" height="10.526315789473685" x="-5.2631578947368425" y="172.51461988304092" transform="rotate(45, 0, 177.77777777777777)"></rect><rect width="10.526315789473685" height="10.526315789473685" x="39.1812865497076" y="172.51461988304092" transform="rotate(45, 44.44444444444444, 177.77777777777777)"></rect><rect width="10.526315789473685" height="10.526315789473685" x="83.62573099415204" y="172.51461988304092" fill="hsla(37, 91%, 55%, 1.00)" stroke="none" transform="rotate(45, 88.88888888888889, 177.77777777777777)"></rect><rect width="10.526315789473685" height="10.526315789473685" x="128.07017543859646" y="172.51461988304092" transform="rotate(45, 133.33333333333331, 177.77777777777777)"></rect><rect width="10.526315789473685" height="10.526315789473685" x="172.51461988304092" y="172.51461988304092" transform="rotate(45, 177.77777777777777, 177.77777777777777)"></rect><rect width="10.526315789473685" height="10.526315789473685" x="216.95906432748538" y="172.51461988304092" transform="rotate(45, 222.22222222222223, 177.77777777777777)"></rect><rect width="10.526315789473685" height="10.526315789473685" x="261.40350877192986" y="172.51461988304092" transform="rotate(45, 266.6666666666667, 177.77777777777777)"></rect><rect width="10.526315789473685" height="10.526315789473685" x="305.8479532163743" y="172.51461988304092" transform="rotate(45, 311.11111111111114, 177.77777777777777)"></rect><rect width="10.526315789473685" height="10.526315789473685" x="350.2923976608188" y="172.51461988304092" transform="rotate(45, 355.5555555555556, 177.77777777777777)"></rect><rect width="10.526315789473685" height="10.526315789473685" x="394.73684210526324" y="172.51461988304092" transform="rotate(45, 400.00000000000006, 177.77777777777777)"></rect><rect width="10.526315789473685" height="10.526315789473685" x="439.1812865497077" y="172.51461988304092" fill="hsla(37, 91%, 55%, 1.00)" stroke="none" transform="rotate(45, 444.4444444444445, 177.77777777777777)"></rect><rect width="10.526315789473685" height="10.526315789473685" x="483.62573099415215" y="172.51461988304092" transform="rotate(45, 488.88888888888897, 177.77777777777777)"></rect><rect width="10.526315789473685" height="10.526315789473685" x="528.0701754385965" y="172.51461988304092" fill="hsla(37, 91%, 55%, 1.00)" stroke="none" transform="rotate(45, 533.3333333333334, 177.77777777777777)"></rect><rect width="10.526315789473685" height="10.526315789473685" x="572.514619883041" y="172.51461988304092" transform="rotate(45, 577.7777777777778, 177.77777777777777)"></rect><rect width="10.526315789473685" height="10.526315789473685" x="616.9590643274854" y="172.51461988304092" transform="rotate(45, 622.2222222222223, 177.77777777777777)"></rect><rect width="10.526315789473685" height="10.526315789473685" x="661.4035087719299" y="172.51461988304092" fill="hsla(37, 91%, 55%, 1.00)" stroke="none" transform="rotate(45, 666.6666666666667, 177.77777777777777)"></rect><rect width="10.526315789473685" height="10.526315789473685" x="705.8479532163743" y="172.51461988304092" fill="hsla(37, 91%, 55%, 1.00)" stroke="none" transform="rotate(45, 711.1111111111112, 177.77777777777777)"></rect><rect width="10.526315789473685" height="10.526315789473685" x="750.2923976608188" y="172.51461988304092" fill="hsla(37, 91%, 55%, 1.00)" stroke="none" transform="rotate(45, 755.5555555555557, 177.77777777777777)"></rect><rect width="10.526315789473685" height="10.526315789473685" x="794.7368421052632" y="172.51461988304092" transform="rotate(45, 800.0000000000001, 177.77777777777777)"></rect><rect width="10.526315789473685" height="10.526315789473685" x="-5.2631578947368425" y="216.95906432748538" transform="rotate(45, 0, 222.22222222222223)"></rect><rect width="10.526315789473685" height="10.526315789473685" x="39.1812865497076" y="216.95906432748538" transform="rotate(45, 44.44444444444444, 222.22222222222223)"></rect><rect width="10.526315789473685" height="10.526315789473685" x="83.62573099415204" y="216.95906432748538" transform="rotate(45, 88.88888888888889, 222.22222222222223)"></rect><rect width="10.526315789473685" height="10.526315789473685" x="128.07017543859646" y="216.95906432748538" transform="rotate(45, 133.33333333333331, 222.22222222222223)"></rect><rect width="10.526315789473685" height="10.526315789473685" x="172.51461988304092" y="216.95906432748538" fill="hsla(37, 91%, 55%, 1.00)" stroke="none" transform="rotate(45, 177.77777777777777, 222.22222222222223)"></rect><rect width="10.526315789473685" height="10.526315789473685" x="216.95906432748538" y="216.95906432748538" transform="rotate(45, 222.22222222222223, 222.22222222222223)"></rect><rect width="10.526315789473685" height="10.526315789473685" x="261.40350877192986" y="216.95906432748538" transform="rotate(45, 266.6666666666667, 222.22222222222223)"></rect><rect width="10.526315789473685" height="10.526315789473685" x="305.8479532163743" y="216.95906432748538" fill="hsla(37, 91%, 55%, 1.00)" stroke="none" transform="rotate(45, 311.11111111111114, 222.22222222222223)"></rect><rect width="10.526315789473685" height="10.526315789473685" x="350.2923976608188" y="216.95906432748538" transform="rotate(45, 355.5555555555556, 222.22222222222223)"></rect><rect width="10.526315789473685" height="10.526315789473685" x="394.73684210526324" y="216.95906432748538" fill="hsla(37, 91%, 55%, 1.00)" stroke="none" transform="rotate(45, 400.00000000000006, 222.22222222222223)"></rect><rect width="10.526315789473685" height="10.526315789473685" x="439.1812865497077" y="216.95906432748538" transform="rotate(45, 444.4444444444445, 222.22222222222223)"></rect><rect width="10.526315789473685" height="10.526315789473685" x="483.62573099415215" y="216.95906432748538" transform="rotate(45, 488.88888888888897, 222.22222222222223)"></rect><rect width="10.526315789473685" height="10.526315789473685" x="528.0701754385965" y="216.95906432748538" fill="hsla(37, 91%, 55%, 1.00)" stroke="none" transform="rotate(45, 533.3333333333334, 222.22222222222223)"></rect><rect width="10.526315789473685" height="10.526315789473685" x="572.514619883041" y="216.95906432748538" fill="hsla(37, 91%, 55%, 1.00)" stroke="none" transform="rotate(45, 577.7777777777778, 222.22222222222223)"></rect><rect width="10.526315789473685" height="10.526315789473685" x="616.9590643274854" y="216.95906432748538" transform="rotate(45, 622.2222222222223, 222.22222222222223)"></rect><rect width="10.526315789473685" height="10.526315789473685" x="661.4035087719299" y="216.95906432748538" fill="hsla(37, 91%, 55%, 1.00)" stroke="none" transform="rotate(45, 666.6666666666667, 222.22222222222223)"></rect><rect width="10.526315789473685" height="10.526315789473685" x="705.8479532163743" y="216.95906432748538" transform="rotate(45, 711.1111111111112, 222.22222222222223)"></rect><rect width="10.526315789473685" height="10.526315789473685" x="750.2923976608188" y="216.95906432748538" transform="rotate(45, 755.5555555555557, 222.22222222222223)"></rect><rect width="10.526315789473685" height="10.526315789473685" x="794.7368421052632" y="216.95906432748538" transform="rotate(45, 800.0000000000001, 222.22222222222223)"></rect><rect width="10.526315789473685" height="10.526315789473685" x="-5.2631578947368425" y="261.40350877192986" transform="rotate(45, 0, 266.6666666666667)"></rect><rect width="10.526315789473685" height="10.526315789473685" x="39.1812865497076" y="261.40350877192986" transform="rotate(45, 44.44444444444444, 266.6666666666667)"></rect><rect width="10.526315789473685" height="10.526315789473685" x="83.62573099415204" y="261.40350877192986" transform="rotate(45, 88.88888888888889, 266.6666666666667)"></rect><rect width="10.526315789473685" height="10.526315789473685" x="128.07017543859646" y="261.40350877192986" transform="rotate(45, 133.33333333333331, 266.6666666666667)"></rect><rect width="10.526315789473685" height="10.526315789473685" x="172.51461988304092" y="261.40350877192986" transform="rotate(45, 177.77777777777777, 266.6666666666667)"></rect><rect width="10.526315789473685" height="10.526315789473685" x="216.95906432748538" y="261.40350877192986" fill="hsla(37, 91%, 55%, 1.00)" stroke="none" transform="rotate(45, 222.22222222222223, 266.6666666666667)"></rect><rect width="10.526315789473685" height="10.526315789473685" x="261.40350877192986" y="261.40350877192986" transform="rotate(45, 266.6666666666667, 266.6666666666667)"></rect><rect width="10.526315789473685" height="10.526315789473685" x="305.8479532163743" y="261.40350877192986" transform="rotate(45, 311.11111111111114, 266.6666666666667)"></rect><rect width="10.526315789473685" height="10.526315789473685" x="350.2923976608188" y="261.40350877192986" transform="rotate(45, 355.5555555555556, 266.6666666666667)"></rect><rect width="10.526315789473685" height="10.526315789473685" x="394.73684210526324" y="261.40350877192986" fill="hsla(37, 91%, 55%, 1.00)" stroke="none" transform="rotate(45, 400.00000000000006, 266.6666666666667)"></rect><rect width="10.526315789473685" height="10.526315789473685" x="439.1812865497077" y="261.40350877192986" transform="rotate(45, 444.4444444444445, 266.6666666666667)"></rect><rect width="10.526315789473685" height="10.526315789473685" x="483.62573099415215" y="261.40350877192986" fill="hsla(37, 91%, 55%, 1.00)" stroke="none" transform="rotate(45, 488.88888888888897, 266.6666666666667)"></rect><rect width="10.526315789473685" height="10.526315789473685" x="528.0701754385965" y="261.40350877192986" fill="hsla(37, 91%, 55%, 1.00)" stroke="none" transform="rotate(45, 533.3333333333334, 266.6666666666667)"></rect><rect width="10.526315789473685" height="10.526315789473685" x="572.514619883041" y="261.40350877192986" transform="rotate(45, 577.7777777777778, 266.6666666666667)"></rect><rect width="10.526315789473685" height="10.526315789473685" x="616.9590643274854" y="261.40350877192986" transform="rotate(45, 622.2222222222223, 266.6666666666667)"></rect><rect width="10.526315789473685" height="10.526315789473685" x="661.4035087719299" y="261.40350877192986" transform="rotate(45, 666.6666666666667, 266.6666666666667)"></rect><rect width="10.526315789473685" height="10.526315789473685" x="705.8479532163743" y="261.40350877192986" transform="rotate(45, 711.1111111111112, 266.6666666666667)"></rect><rect width="10.526315789473685" height="10.526315789473685" x="750.2923976608188" y="261.40350877192986" transform="rotate(45, 755.5555555555557, 266.6666666666667)"></rect><rect width="10.526315789473685" height="10.526315789473685" x="794.7368421052632" y="261.40350877192986" transform="rotate(45, 800.0000000000001, 266.6666666666667)"></rect><rect width="10.526315789473685" height="10.526315789473685" x="-5.2631578947368425" y="305.8479532163743" transform="rotate(45, 0, 311.11111111111114)"></rect><rect width="10.526315789473685" height="10.526315789473685" x="39.1812865497076" y="305.8479532163743" fill="hsla(37, 91%, 55%, 1.00)" stroke="none" transform="rotate(45, 44.44444444444444, 311.11111111111114)"></rect><rect width="10.526315789473685" height="10.526315789473685" x="83.62573099415204" y="305.8479532163743" transform="rotate(45, 88.88888888888889, 311.11111111111114)"></rect><rect width="10.526315789473685" height="10.526315789473685" x="128.07017543859646" y="305.8479532163743" fill="hsla(37, 91%, 55%, 1.00)" stroke="none" transform="rotate(45, 133.33333333333331, 311.11111111111114)"></rect><rect width="10.526315789473685" height="10.526315789473685" x="172.51461988304092" y="305.8479532163743" fill="hsla(37, 91%, 55%, 1.00)" stroke="none" transform="rotate(45, 177.77777777777777, 311.11111111111114)"></rect><rect width="10.526315789473685" height="10.526315789473685" x="216.95906432748538" y="305.8479532163743" fill="hsla(37, 91%, 55%, 1.00)" stroke="none" transform="rotate(45, 222.22222222222223, 311.11111111111114)"></rect><rect width="10.526315789473685" height="10.526315789473685" x="261.40350877192986" y="305.8479532163743" transform="rotate(45, 266.6666666666667, 311.11111111111114)"></rect><rect width="10.526315789473685" height="10.526315789473685" x="305.8479532163743" y="305.8479532163743" transform="rotate(45, 311.11111111111114, 311.11111111111114)"></rect><rect width="10.526315789473685" height="10.526315789473685" x="350.2923976608188" y="305.8479532163743" transform="rotate(45, 355.5555555555556, 311.11111111111114)"></rect><rect width="10.526315789473685" height="10.526315789473685" x="394.73684210526324" y="305.8479532163743" fill="hsla(37, 91%, 55%, 1.00)" stroke="none" transform="rotate(45, 400.00000000000006, 311.11111111111114)"></rect><rect width="10.526315789473685" height="10.526315789473685" x="439.1812865497077" y="305.8479532163743" transform="rotate(45, 444.4444444444445, 311.11111111111114)"></rect><rect width="10.526315789473685" height="10.526315789473685" x="483.62573099415215" y="305.8479532163743" transform="rotate(45, 488.88888888888897, 311.11111111111114)"></rect><rect width="10.526315789473685" height="10.526315789473685" x="528.0701754385965" y="305.8479532163743" transform="rotate(45, 533.3333333333334, 311.11111111111114)"></rect><rect width="10.526315789473685" height="10.526315789473685" x="572.514619883041" y="305.8479532163743" transform="rotate(45, 577.7777777777778, 311.11111111111114)"></rect><rect width="10.526315789473685" height="10.526315789473685" x="616.9590643274854" y="305.8479532163743" fill="hsla(37, 91%, 55%, 1.00)" stroke="none" transform="rotate(45, 622.2222222222223, 311.11111111111114)"></rect><rect width="10.526315789473685" height="10.526315789473685" x="661.4035087719299" y="305.8479532163743" transform="rotate(45, 666.6666666666667, 311.11111111111114)"></rect><rect width="10.526315789473685" height="10.526315789473685" x="705.8479532163743" y="305.8479532163743" fill="hsla(37, 91%, 55%, 1.00)" stroke="none" transform="rotate(45, 711.1111111111112, 311.11111111111114)"></rect><rect width="10.526315789473685" height="10.526315789473685" x="750.2923976608188" y="305.8479532163743" transform="rotate(45, 755.5555555555557, 311.11111111111114)"></rect><rect width="10.526315789473685" height="10.526315789473685" x="794.7368421052632" y="305.8479532163743" transform="rotate(45, 800.0000000000001, 311.11111111111114)"></rect><rect width="10.526315789473685" height="10.526315789473685" x="-5.2631578947368425" y="350.2923976608188" transform="rotate(45, 0, 355.5555555555556)"></rect><rect width="10.526315789473685" height="10.526315789473685" x="39.1812865497076" y="350.2923976608188" fill="hsla(37, 91%, 55%, 1.00)" stroke="none" transform="rotate(45, 44.44444444444444, 355.5555555555556)"></rect><rect width="10.526315789473685" height="10.526315789473685" x="83.62573099415204" y="350.2923976608188" transform="rotate(45, 88.88888888888889, 355.5555555555556)"></rect><rect width="10.526315789473685" height="10.526315789473685" x="128.07017543859646" y="350.2923976608188" transform="rotate(45, 133.33333333333331, 355.5555555555556)"></rect><rect width="10.526315789473685" height="10.526315789473685" x="172.51461988304092" y="350.2923976608188" fill="hsla(37, 91%, 55%, 1.00)" stroke="none" transform="rotate(45, 177.77777777777777, 355.5555555555556)"></rect><rect width="10.526315789473685" height="10.526315789473685" x="216.95906432748538" y="350.2923976608188" transform="rotate(45, 222.22222222222223, 355.5555555555556)"></rect><rect width="10.526315789473685" height="10.526315789473685" x="261.40350877192986" y="350.2923976608188" transform="rotate(45, 266.6666666666667, 355.5555555555556)"></rect><rect width="10.526315789473685" height="10.526315789473685" x="305.8479532163743" y="350.2923976608188" transform="rotate(45, 311.11111111111114, 355.5555555555556)"></rect><rect width="10.526315789473685" height="10.526315789473685" x="350.2923976608188" y="350.2923976608188" transform="rotate(45, 355.5555555555556, 355.5555555555556)"></rect><rect width="10.526315789473685" height="10.526315789473685" x="394.73684210526324" y="350.2923976608188" transform="rotate(45, 400.00000000000006, 355.5555555555556)"></rect><rect width="10.526315789473685" height="10.526315789473685" x="439.1812865497077" y="350.2923976608188" transform="rotate(45, 444.4444444444445, 355.5555555555556)"></rect><rect width="10.526315789473685" height="10.526315789473685" x="483.62573099415215" y="350.2923976608188" transform="rotate(45, 488.88888888888897, 355.5555555555556)"></rect><rect width="10.526315789473685" height="10.526315789473685" x="528.0701754385965" y="350.2923976608188" transform="rotate(45, 533.3333333333334, 355.5555555555556)"></rect><rect width="10.526315789473685" height="10.526315789473685" x="572.514619883041" y="350.2923976608188" fill="hsla(37, 91%, 55%, 1.00)" stroke="none" transform="rotate(45, 577.7777777777778, 355.5555555555556)"></rect><rect width="10.526315789473685" height="10.526315789473685" x="616.9590643274854" y="350.2923976608188" transform="rotate(45, 622.2222222222223, 355.5555555555556)"></rect><rect width="10.526315789473685" height="10.526315789473685" x="661.4035087719299" y="350.2923976608188" fill="hsla(37, 91%, 55%, 1.00)" stroke="none" transform="rotate(45, 666.6666666666667, 355.5555555555556)"></rect><rect width="10.526315789473685" height="10.526315789473685" x="705.8479532163743" y="350.2923976608188" transform="rotate(45, 711.1111111111112, 355.5555555555556)"></rect><rect width="10.526315789473685" height="10.526315789473685" x="750.2923976608188" y="350.2923976608188" transform="rotate(45, 755.5555555555557, 355.5555555555556)"></rect><rect width="10.526315789473685" height="10.526315789473685" x="794.7368421052632" y="350.2923976608188" transform="rotate(45, 800.0000000000001, 355.5555555555556)"></rect><rect width="10.526315789473685" height="10.526315789473685" x="-5.2631578947368425" y="394.73684210526324" transform="rotate(45, 0, 400.00000000000006)"></rect><rect width="10.526315789473685" height="10.526315789473685" x="39.1812865497076" y="394.73684210526324" transform="rotate(45, 44.44444444444444, 400.00000000000006)"></rect><rect width="10.526315789473685" height="10.526315789473685" x="83.62573099415204" y="394.73684210526324" transform="rotate(45, 88.88888888888889, 400.00000000000006)"></rect><rect width="10.526315789473685" height="10.526315789473685" x="128.07017543859646" y="394.73684210526324" transform="rotate(45, 133.33333333333331, 400.00000000000006)"></rect><rect width="10.526315789473685" height="10.526315789473685" x="172.51461988304092" y="394.73684210526324" transform="rotate(45, 177.77777777777777, 400.00000000000006)"></rect><rect width="10.526315789473685" height="10.526315789473685" x="216.95906432748538" y="394.73684210526324" fill="hsla(37, 91%, 55%, 1.00)" stroke="none" transform="rotate(45, 222.22222222222223, 400.00000000000006)"></rect><rect width="10.526315789473685" height="10.526315789473685" x="261.40350877192986" y="394.73684210526324" transform="rotate(45, 266.6666666666667, 400.00000000000006)"></rect><rect width="10.526315789473685" height="10.526315789473685" x="305.8479532163743" y="394.73684210526324" fill="hsla(37, 91%, 55%, 1.00)" stroke="none" transform="rotate(45, 311.11111111111114, 400.00000000000006)"></rect><rect width="10.526315789473685" height="10.526315789473685" x="350.2923976608188" y="394.73684210526324" transform="rotate(45, 355.5555555555556, 400.00000000000006)"></rect><rect width="10.526315789473685" height="10.526315789473685" x="394.73684210526324" y="394.73684210526324" transform="rotate(45, 400.00000000000006, 400.00000000000006)"></rect><rect width="10.526315789473685" height="10.526315789473685" x="439.1812865497077" y="394.73684210526324" transform="rotate(45, 444.4444444444445, 400.00000000000006)"></rect><rect width="10.526315789473685" height="10.526315789473685" x="483.62573099415215" y="394.73684210526324" transform="rotate(45, 488.88888888888897, 400.00000000000006)"></rect><rect width="10.526315789473685" height="10.526315789473685" x="528.0701754385965" y="394.73684210526324" transform="rotate(45, 533.3333333333334, 400.00000000000006)"></rect><rect width="10.526315789473685" height="10.526315789473685" x="572.514619883041" y="394.73684210526324" transform="rotate(45, 577.7777777777778, 400.00000000000006)"></rect><rect width="10.526315789473685" height="10.526315789473685" x="616.9590643274854" y="394.73684210526324" transform="rotate(45, 622.2222222222223, 400.00000000000006)"></rect><rect width="10.526315789473685" height="10.526315789473685" x="661.4035087719299" y="394.73684210526324" fill="hsla(37, 91%, 55%, 1.00)" stroke="none" transform="rotate(45, 666.6666666666667, 400.00000000000006)"></rect><rect width="10.526315789473685" height="10.526315789473685" x="705.8479532163743" y="394.73684210526324" fill="hsla(37, 91%, 55%, 1.00)" stroke="none" transform="rotate(45, 711.1111111111112, 400.00000000000006)"></rect><rect width="10.526315789473685" height="10.526315789473685" x="750.2923976608188" y="394.73684210526324" transform="rotate(45, 755.5555555555557, 400.00000000000006)"></rect><rect width="10.526315789473685" height="10.526315789473685" x="794.7368421052632" y="394.73684210526324" transform="rotate(45, 800.0000000000001, 400.00000000000006)"></rect><rect width="10.526315789473685" height="10.526315789473685" x="-5.2631578947368425" y="439.1812865497077" transform="rotate(45, 0, 444.4444444444445)"></rect><rect width="10.526315789473685" height="10.526315789473685" x="39.1812865497076" y="439.1812865497077" transform="rotate(45, 44.44444444444444, 444.4444444444445)"></rect><rect width="10.526315789473685" height="10.526315789473685" x="83.62573099415204" y="439.1812865497077" fill="hsla(37, 91%, 55%, 1.00)" stroke="none" transform="rotate(45, 88.88888888888889, 444.4444444444445)"></rect><rect width="10.526315789473685" height="10.526315789473685" x="128.07017543859646" y="439.1812865497077" transform="rotate(45, 133.33333333333331, 444.4444444444445)"></rect><rect width="10.526315789473685" height="10.526315789473685" x="172.51461988304092" y="439.1812865497077" transform="rotate(45, 177.77777777777777, 444.4444444444445)"></rect><rect width="10.526315789473685" height="10.526315789473685" x="216.95906432748538" y="439.1812865497077" transform="rotate(45, 222.22222222222223, 444.4444444444445)"></rect><rect width="10.526315789473685" height="10.526315789473685" x="261.40350877192986" y="439.1812865497077" fill="hsla(37, 91%, 55%, 1.00)" stroke="none" transform="rotate(45, 266.6666666666667, 444.4444444444445)"></rect><rect width="10.526315789473685" height="10.526315789473685" x="305.8479532163743" y="439.1812865497077" fill="hsla(37, 91%, 55%, 1.00)" stroke="none" transform="rotate(45, 311.11111111111114, 444.4444444444445)"></rect><rect width="10.526315789473685" height="10.526315789473685" x="350.2923976608188" y="439.1812865497077" transform="rotate(45, 355.5555555555556, 444.4444444444445)"></rect><rect width="10.526315789473685" height="10.526315789473685" x="394.73684210526324" y="439.1812865497077" transform="rotate(45, 400.00000000000006, 444.4444444444445)"></rect><rect width="10.526315789473685" height="10.526315789473685" x="439.1812865497077" y="439.1812865497077" transform="rotate(45, 444.4444444444445, 444.4444444444445)"></rect><rect width="10.526315789473685" height="10.526315789473685" x="483.62573099415215" y="439.1812865497077" transform="rotate(45, 488.88888888888897, 444.4444444444445)"></rect><rect width="10.526315789473685" height="10.526315789473685" x="528.0701754385965" y="439.1812865497077" transform="rotate(45, 533.3333333333334, 444.4444444444445)"></rect><rect width="10.526315789473685" height="10.526315789473685" x="572.514619883041" y="439.1812865497077" transform="rotate(45, 577.7777777777778, 444.4444444444445)"></rect><rect width="10.526315789473685" height="10.526315789473685" x="616.9590643274854" y="439.1812865497077" fill="hsla(37, 91%, 55%, 1.00)" stroke="none" transform="rotate(45, 622.2222222222223, 444.4444444444445)"></rect><rect width="10.526315789473685" height="10.526315789473685" x="661.4035087719299" y="439.1812865497077" transform="rotate(45, 666.6666666666667, 444.4444444444445)"></rect><rect width="10.526315789473685" height="10.526315789473685" x="705.8479532163743" y="439.1812865497077" transform="rotate(45, 711.1111111111112, 444.4444444444445)"></rect><rect width="10.526315789473685" height="10.526315789473685" x="750.2923976608188" y="439.1812865497077" fill="hsla(37, 91%, 55%, 1.00)" stroke="none" transform="rotate(45, 755.5555555555557, 444.4444444444445)"></rect><rect width="10.526315789473685" height="10.526315789473685" x="794.7368421052632" y="439.1812865497077" transform="rotate(45, 800.0000000000001, 444.4444444444445)"></rect><rect width="10.526315789473685" height="10.526315789473685" x="-5.2631578947368425" y="483.62573099415215" transform="rotate(45, 0, 488.88888888888897)"></rect><rect width="10.526315789473685" height="10.526315789473685" x="39.1812865497076" y="483.62573099415215" fill="hsla(37, 91%, 55%, 1.00)" stroke="none" transform="rotate(45, 44.44444444444444, 488.88888888888897)"></rect><rect width="10.526315789473685" height="10.526315789473685" x="83.62573099415204" y="483.62573099415215" transform="rotate(45, 88.88888888888889, 488.88888888888897)"></rect><rect width="10.526315789473685" height="10.526315789473685" x="128.07017543859646" y="483.62573099415215" transform="rotate(45, 133.33333333333331, 488.88888888888897)"></rect><rect width="10.526315789473685" height="10.526315789473685" x="172.51461988304092" y="483.62573099415215" transform="rotate(45, 177.77777777777777, 488.88888888888897)"></rect><rect width="10.526315789473685" height="10.526315789473685" x="216.95906432748538" y="483.62573099415215" transform="rotate(45, 222.22222222222223, 488.88888888888897)"></rect><rect width="10.526315789473685" height="10.526315789473685" x="261.40350877192986" y="483.62573099415215" transform="rotate(45, 266.6666666666667, 488.88888888888897)"></rect><rect width="10.526315789473685" height="10.526315789473685" x="305.8479532163743" y="483.62573099415215" transform="rotate(45, 311.11111111111114, 488.88888888888897)"></rect><rect width="10.526315789473685" height="10.526315789473685" x="350.2923976608188" y="483.62573099415215" transform="rotate(45, 355.5555555555556, 488.88888888888897)"></rect><rect width="10.526315789473685" height="10.526315789473685" x="394.73684210526324" y="483.62573099415215" fill="hsla(37, 91%, 55%, 1.00)" stroke="none" transform="rotate(45, 400.00000000000006, 488.88888888888897)"></rect><rect width="10.526315789473685" height="10.526315789473685" x="439.1812865497077" y="483.62573099415215" transform="rotate(45, 444.4444444444445, 488.88888888888897)"></rect><rect width="10.526315789473685" height="10.526315789473685" x="483.62573099415215" y="483.62573099415215" transform="rotate(45, 488.88888888888897, 488.88888888888897)"></rect><rect width="10.526315789473685" height="10.526315789473685" x="528.0701754385965" y="483.62573099415215" fill="hsla(37, 91%, 55%, 1.00)" stroke="none" transform="rotate(45, 533.3333333333334, 488.88888888888897)"></rect><rect width="10.526315789473685" height="10.526315789473685" x="572.514619883041" y="483.62573099415215" transform="rotate(45, 577.7777777777778, 488.88888888888897)"></rect><rect width="10.526315789473685" height="10.526315789473685" x="616.9590643274854" y="483.62573099415215" transform="rotate(45, 622.2222222222223, 488.88888888888897)"></rect><rect width="10.526315789473685" height="10.526315789473685" x="661.4035087719299" y="483.62573099415215" transform="rotate(45, 666.6666666666667, 488.88888888888897)"></rect><rect width="10.526315789473685" height="10.526315789473685" x="705.8479532163743" y="483.62573099415215" fill="hsla(37, 91%, 55%, 1.00)" stroke="none" transform="rotate(45, 711.1111111111112, 488.88888888888897)"></rect><rect width="10.526315789473685" height="10.526315789473685" x="750.2923976608188" y="483.62573099415215" transform="rotate(45, 755.5555555555557, 488.88888888888897)"></rect><rect width="10.526315789473685" height="10.526315789473685" x="794.7368421052632" y="483.62573099415215" transform="rotate(45, 800.0000000000001, 488.88888888888897)"></rect><rect width="10.526315789473685" height="10.526315789473685" x="-5.2631578947368425" y="528.0701754385965" transform="rotate(45, 0, 533.3333333333334)"></rect><rect width="10.526315789473685" height="10.526315789473685" x="39.1812865497076" y="528.0701754385965" fill="hsla(37, 91%, 55%, 1.00)" stroke="none" transform="rotate(45, 44.44444444444444, 533.3333333333334)"></rect><rect width="10.526315789473685" height="10.526315789473685" x="83.62573099415204" y="528.0701754385965" transform="rotate(45, 88.88888888888889, 533.3333333333334)"></rect><rect width="10.526315789473685" height="10.526315789473685" x="128.07017543859646" y="528.0701754385965" transform="rotate(45, 133.33333333333331, 533.3333333333334)"></rect><rect width="10.526315789473685" height="10.526315789473685" x="172.51461988304092" y="528.0701754385965" transform="rotate(45, 177.77777777777777, 533.3333333333334)"></rect><rect width="10.526315789473685" height="10.526315789473685" x="216.95906432748538" y="528.0701754385965" transform="rotate(45, 222.22222222222223, 533.3333333333334)"></rect><rect width="10.526315789473685" height="10.526315789473685" x="261.40350877192986" y="528.0701754385965" transform="rotate(45, 266.6666666666667, 533.3333333333334)"></rect><rect width="10.526315789473685" height="10.526315789473685" x="305.8479532163743" y="528.0701754385965" fill="hsla(37, 91%, 55%, 1.00)" stroke="none" transform="rotate(45, 311.11111111111114, 533.3333333333334)"></rect><rect width="10.526315789473685" height="10.526315789473685" x="350.2923976608188" y="528.0701754385965" transform="rotate(45, 355.5555555555556, 533.3333333333334)"></rect><rect width="10.526315789473685" height="10.526315789473685" x="394.73684210526324" y="528.0701754385965" transform="rotate(45, 400.00000000000006, 533.3333333333334)"></rect><rect width="10.526315789473685" height="10.526315789473685" x="439.1812865497077" y="528.0701754385965" transform="rotate(45, 444.4444444444445, 533.3333333333334)"></rect><rect width="10.526315789473685" height="10.526315789473685" x="483.62573099415215" y="528.0701754385965" transform="rotate(45, 488.88888888888897, 533.3333333333334)"></rect><rect width="10.526315789473685" height="10.526315789473685" x="528.0701754385965" y="528.0701754385965" transform="rotate(45, 533.3333333333334, 533.3333333333334)"></rect><rect width="10.526315789473685" height="10.526315789473685" x="572.514619883041" y="528.0701754385965" transform="rotate(45, 577.7777777777778, 533.3333333333334)"></rect><rect width="10.526315789473685" height="10.526315789473685" x="616.9590643274854" y="528.0701754385965" transform="rotate(45, 622.2222222222223, 533.3333333333334)"></rect><rect width="10.526315789473685" height="10.526315789473685" x="661.4035087719299" y="528.0701754385965" transform="rotate(45, 666.6666666666667, 533.3333333333334)"></rect><rect width="10.526315789473685" height="10.526315789473685" x="705.8479532163743" y="528.0701754385965" transform="rotate(45, 711.1111111111112, 533.3333333333334)"></rect><rect width="10.526315789473685" height="10.526315789473685" x="750.2923976608188" y="528.0701754385965" transform="rotate(45, 755.5555555555557, 533.3333333333334)"></rect><rect width="10.526315789473685" height="10.526315789473685" x="794.7368421052632" y="528.0701754385965" transform="rotate(45, 800.0000000000001, 533.3333333333334)"></rect><rect width="10.526315789473685" height="10.526315789473685" x="-5.2631578947368425" y="572.514619883041" transform="rotate(45, 0, 577.7777777777778)"></rect><rect width="10.526315789473685" height="10.526315789473685" x="39.1812865497076" y="572.514619883041" transform="rotate(45, 44.44444444444444, 577.7777777777778)"></rect><rect width="10.526315789473685" height="10.526315789473685" x="83.62573099415204" y="572.514619883041" transform="rotate(45, 88.88888888888889, 577.7777777777778)"></rect><rect width="10.526315789473685" height="10.526315789473685" x="128.07017543859646" y="572.514619883041" transform="rotate(45, 133.33333333333331, 577.7777777777778)"></rect><rect width="10.526315789473685" height="10.526315789473685" x="172.51461988304092" y="572.514619883041" fill="hsla(37, 91%, 55%, 1.00)" stroke="none" transform="rotate(45, 177.77777777777777, 577.7777777777778)"></rect><rect width="10.526315789473685" height="10.526315789473685" x="216.95906432748538" y="572.514619883041" transform="rotate(45, 222.22222222222223, 577.7777777777778)"></rect><rect width="10.526315789473685" height="10.526315789473685" x="261.40350877192986" y="572.514619883041" transform="rotate(45, 266.6666666666667, 577.7777777777778)"></rect><rect width="10.526315789473685" height="10.526315789473685" x="305.8479532163743" y="572.514619883041" transform="rotate(45, 311.11111111111114, 577.7777777777778)"></rect><rect width="10.526315789473685" height="10.526315789473685" x="350.2923976608188" y="572.514619883041" fill="hsla(37, 91%, 55%, 1.00)" stroke="none" transform="rotate(45, 355.5555555555556, 577.7777777777778)"></rect><rect width="10.526315789473685" height="10.526315789473685" x="394.73684210526324" y="572.514619883041" transform="rotate(45, 400.00000000000006, 577.7777777777778)"></rect><rect width="10.526315789473685" height="10.526315789473685" x="439.1812865497077" y="572.514619883041" fill="hsla(37, 91%, 55%, 1.00)" stroke="none" transform="rotate(45, 444.4444444444445, 577.7777777777778)"></rect><rect width="10.526315789473685" height="10.526315789473685" x="483.62573099415215" y="572.514619883041" transform="rotate(45, 488.88888888888897, 577.7777777777778)"></rect><rect width="10.526315789473685" height="10.526315789473685" x="528.0701754385965" y="572.514619883041" transform="rotate(45, 533.3333333333334, 577.7777777777778)"></rect><rect width="10.526315789473685" height="10.526315789473685" x="572.514619883041" y="572.514619883041" transform="rotate(45, 577.7777777777778, 577.7777777777778)"></rect><rect width="10.526315789473685" height="10.526315789473685" x="616.9590643274854" y="572.514619883041" fill="hsla(37, 91%, 55%, 1.00)" stroke="none" transform="rotate(45, 622.2222222222223, 577.7777777777778)"></rect><rect width="10.526315789473685" height="10.526315789473685" x="661.4035087719299" y="572.514619883041" transform="rotate(45, 666.6666666666667, 577.7777777777778)"></rect><rect width="10.526315789473685" height="10.526315789473685" x="705.8479532163743" y="572.514619883041" transform="rotate(45, 711.1111111111112, 577.7777777777778)"></rect><rect width="10.526315789473685" height="10.526315789473685" x="750.2923976608188" y="572.514619883041" transform="rotate(45, 755.5555555555557, 577.7777777777778)"></rect><rect width="10.526315789473685" height="10.526315789473685" x="794.7368421052632" y="572.514619883041" transform="rotate(45, 800.0000000000001, 577.7777777777778)"></rect><rect width="10.526315789473685" height="10.526315789473685" x="-5.2631578947368425" y="616.9590643274854" transform="rotate(45, 0, 622.2222222222223)"></rect><rect width="10.526315789473685" height="10.526315789473685" x="39.1812865497076" y="616.9590643274854" transform="rotate(45, 44.44444444444444, 622.2222222222223)"></rect><rect width="10.526315789473685" height="10.526315789473685" x="83.62573099415204" y="616.9590643274854" transform="rotate(45, 88.88888888888889, 622.2222222222223)"></rect><rect width="10.526315789473685" height="10.526315789473685" x="128.07017543859646" y="616.9590643274854" transform="rotate(45, 133.33333333333331, 622.2222222222223)"></rect><rect width="10.526315789473685" height="10.526315789473685" x="172.51461988304092" y="616.9590643274854" transform="rotate(45, 177.77777777777777, 622.2222222222223)"></rect><rect width="10.526315789473685" height="10.526315789473685" x="216.95906432748538" y="616.9590643274854" transform="rotate(45, 222.22222222222223, 622.2222222222223)"></rect><rect width="10.526315789473685" height="10.526315789473685" x="261.40350877192986" y="616.9590643274854" transform="rotate(45, 266.6666666666667, 622.2222222222223)"></rect><rect width="10.526315789473685" height="10.526315789473685" x="305.8479532163743" y="616.9590643274854" transform="rotate(45, 311.11111111111114, 622.2222222222223)"></rect><rect width="10.526315789473685" height="10.526315789473685" x="350.2923976608188" y="616.9590643274854" transform="rotate(45, 355.5555555555556, 622.2222222222223)"></rect><rect width="10.526315789473685" height="10.526315789473685" x="394.73684210526324" y="616.9590643274854" transform="rotate(45, 400.00000000000006, 622.2222222222223)"></rect><rect width="10.526315789473685" height="10.526315789473685" x="439.1812865497077" y="616.9590643274854" transform="rotate(45, 444.4444444444445, 622.2222222222223)"></rect><rect width="10.526315789473685" height="10.526315789473685" x="483.62573099415215" y="616.9590643274854" transform="rotate(45, 488.88888888888897, 622.2222222222223)"></rect><rect width="10.526315789473685" height="10.526315789473685" x="528.0701754385965" y="616.9590643274854" transform="rotate(45, 533.3333333333334, 622.2222222222223)"></rect><rect width="10.526315789473685" height="10.526315789473685" x="572.514619883041" y="616.9590643274854" transform="rotate(45, 577.7777777777778, 622.2222222222223)"></rect><rect width="10.526315789473685" height="10.526315789473685" x="616.9590643274854" y="616.9590643274854" transform="rotate(45, 622.2222222222223, 622.2222222222223)"></rect><rect width="10.526315789473685" height="10.526315789473685" x="661.4035087719299" y="616.9590643274854" transform="rotate(45, 666.6666666666667, 622.2222222222223)"></rect><rect width="10.526315789473685" height="10.526315789473685" x="705.8479532163743" y="616.9590643274854" transform="rotate(45, 711.1111111111112, 622.2222222222223)"></rect><rect width="10.526315789473685" height="10.526315789473685" x="750.2923976608188" y="616.9590643274854" fill="hsla(37, 91%, 55%, 1.00)" stroke="none" transform="rotate(45, 755.5555555555557, 622.2222222222223)"></rect><rect width="10.526315789473685" height="10.526315789473685" x="794.7368421052632" y="616.9590643274854" transform="rotate(45, 800.0000000000001, 622.2222222222223)"></rect><rect width="10.526315789473685" height="10.526315789473685" x="-5.2631578947368425" y="661.4035087719299" transform="rotate(45, 0, 666.6666666666667)"></rect><rect width="10.526315789473685" height="10.526315789473685" x="39.1812865497076" y="661.4035087719299" transform="rotate(45, 44.44444444444444, 666.6666666666667)"></rect><rect width="10.526315789473685" height="10.526315789473685" x="83.62573099415204" y="661.4035087719299" transform="rotate(45, 88.88888888888889, 666.6666666666667)"></rect><rect width="10.526315789473685" height="10.526315789473685" x="128.07017543859646" y="661.4035087719299" transform="rotate(45, 133.33333333333331, 666.6666666666667)"></rect><rect width="10.526315789473685" height="10.526315789473685" x="172.51461988304092" y="661.4035087719299" transform="rotate(45, 177.77777777777777, 666.6666666666667)"></rect><rect width="10.526315789473685" height="10.526315789473685" x="216.95906432748538" y="661.4035087719299" transform="rotate(45, 222.22222222222223, 666.6666666666667)"></rect><rect width="10.526315789473685" height="10.526315789473685" x="261.40350877192986" y="661.4035087719299" transform="rotate(45, 266.6666666666667, 666.6666666666667)"></rect><rect width="10.526315789473685" height="10.526315789473685" x="305.8479532163743" y="661.4035087719299" transform="rotate(45, 311.11111111111114, 666.6666666666667)"></rect><rect width="10.526315789473685" height="10.526315789473685" x="350.2923976608188" y="661.4035087719299" transform="rotate(45, 355.5555555555556, 666.6666666666667)"></rect><rect width="10.526315789473685" height="10.526315789473685" x="394.73684210526324" y="661.4035087719299" transform="rotate(45, 400.00000000000006, 666.6666666666667)"></rect><rect width="10.526315789473685" height="10.526315789473685" x="439.1812865497077" y="661.4035087719299" transform="rotate(45, 444.4444444444445, 666.6666666666667)"></rect><rect width="10.526315789473685" height="10.526315789473685" x="483.62573099415215" y="661.4035087719299" fill="hsla(37, 91%, 55%, 1.00)" stroke="none" transform="rotate(45, 488.88888888888897, 666.6666666666667)"></rect><rect width="10.526315789473685" height="10.526315789473685" x="528.0701754385965" y="661.4035087719299" transform="rotate(45, 533.3333333333334, 666.6666666666667)"></rect><rect width="10.526315789473685" height="10.526315789473685" x="572.514619883041" y="661.4035087719299" fill="hsla(37, 91%, 55%, 1.00)" stroke="none" transform="rotate(45, 577.7777777777778, 666.6666666666667)"></rect><rect width="10.526315789473685" height="10.526315789473685" x="616.9590643274854" y="661.4035087719299" fill="hsla(37, 91%, 55%, 1.00)" stroke="none" transform="rotate(45, 622.2222222222223, 666.6666666666667)"></rect><rect width="10.526315789473685" height="10.526315789473685" x="661.4035087719299" y="661.4035087719299" transform="rotate(45, 666.6666666666667, 666.6666666666667)"></rect><rect width="10.526315789473685" height="10.526315789473685" x="705.8479532163743" y="661.4035087719299" transform="rotate(45, 711.1111111111112, 666.6666666666667)"></rect><rect width="10.526315789473685" height="10.526315789473685" x="750.2923976608188" y="661.4035087719299" transform="rotate(45, 755.5555555555557, 666.6666666666667)"></rect><rect width="10.526315789473685" height="10.526315789473685" x="794.7368421052632" y="661.4035087719299" transform="rotate(45, 800.0000000000001, 666.6666666666667)"></rect><rect width="10.526315789473685" height="10.526315789473685" x="-5.2631578947368425" y="705.8479532163743" transform="rotate(45, 0, 711.1111111111112)"></rect><rect width="10.526315789473685" height="10.526315789473685" x="39.1812865497076" y="705.8479532163743" fill="hsla(37, 91%, 55%, 1.00)" stroke="none" transform="rotate(45, 44.44444444444444, 711.1111111111112)"></rect><rect width="10.526315789473685" height="10.526315789473685" x="83.62573099415204" y="705.8479532163743" fill="hsla(37, 91%, 55%, 1.00)" stroke="none" transform="rotate(45, 88.88888888888889, 711.1111111111112)"></rect><rect width="10.526315789473685" height="10.526315789473685" x="128.07017543859646" y="705.8479532163743" transform="rotate(45, 133.33333333333331, 711.1111111111112)"></rect><rect width="10.526315789473685" height="10.526315789473685" x="172.51461988304092" y="705.8479532163743" transform="rotate(45, 177.77777777777777, 711.1111111111112)"></rect><rect width="10.526315789473685" height="10.526315789473685" x="216.95906432748538" y="705.8479532163743" transform="rotate(45, 222.22222222222223, 711.1111111111112)"></rect><rect width="10.526315789473685" height="10.526315789473685" x="261.40350877192986" y="705.8479532163743" fill="hsla(37, 91%, 55%, 1.00)" stroke="none" transform="rotate(45, 266.6666666666667, 711.1111111111112)"></rect><rect width="10.526315789473685" height="10.526315789473685" x="305.8479532163743" y="705.8479532163743" transform="rotate(45, 311.11111111111114, 711.1111111111112)"></rect><rect width="10.526315789473685" height="10.526315789473685" x="350.2923976608188" y="705.8479532163743" fill="hsla(37, 91%, 55%, 1.00)" stroke="none" transform="rotate(45, 355.5555555555556, 711.1111111111112)"></rect><rect width="10.526315789473685" height="10.526315789473685" x="394.73684210526324" y="705.8479532163743" fill="hsla(37, 91%, 55%, 1.00)" stroke="none" transform="rotate(45, 400.00000000000006, 711.1111111111112)"></rect><rect width="10.526315789473685" height="10.526315789473685" x="439.1812865497077" y="705.8479532163743" fill="hsla(37, 91%, 55%, 1.00)" stroke="none" transform="rotate(45, 444.4444444444445, 711.1111111111112)"></rect><rect width="10.526315789473685" height="10.526315789473685" x="483.62573099415215" y="705.8479532163743" transform="rotate(45, 488.88888888888897, 711.1111111111112)"></rect><rect width="10.526315789473685" height="10.526315789473685" x="528.0701754385965" y="705.8479532163743" transform="rotate(45, 533.3333333333334, 711.1111111111112)"></rect><rect width="10.526315789473685" height="10.526315789473685" x="572.514619883041" y="705.8479532163743" transform="rotate(45, 577.7777777777778, 711.1111111111112)"></rect><rect width="10.526315789473685" height="10.526315789473685" x="616.9590643274854" y="705.8479532163743" transform="rotate(45, 622.2222222222223, 711.1111111111112)"></rect><rect width="10.526315789473685" height="10.526315789473685" x="661.4035087719299" y="705.8479532163743" fill="hsla(37, 91%, 55%, 1.00)" stroke="none" transform="rotate(45, 666.6666666666667, 711.1111111111112)"></rect><rect width="10.526315789473685" height="10.526315789473685" x="705.8479532163743" y="705.8479532163743" fill="hsla(37, 91%, 55%, 1.00)" stroke="none" transform="rotate(45, 711.1111111111112, 711.1111111111112)"></rect><rect width="10.526315789473685" height="10.526315789473685" x="750.2923976608188" y="705.8479532163743" fill="hsla(37, 91%, 55%, 1.00)" stroke="none" transform="rotate(45, 755.5555555555557, 711.1111111111112)"></rect><rect width="10.526315789473685" height="10.526315789473685" x="794.7368421052632" y="705.8479532163743" transform="rotate(45, 800.0000000000001, 711.1111111111112)"></rect><rect width="10.526315789473685" height="10.526315789473685" x="-5.2631578947368425" y="750.2923976608188" transform="rotate(45, 0, 755.5555555555557)"></rect><rect width="10.526315789473685" height="10.526315789473685" x="39.1812865497076" y="750.2923976608188" transform="rotate(45, 44.44444444444444, 755.5555555555557)"></rect><rect width="10.526315789473685" height="10.526315789473685" x="83.62573099415204" y="750.2923976608188" transform="rotate(45, 88.88888888888889, 755.5555555555557)"></rect><rect width="10.526315789473685" height="10.526315789473685" x="128.07017543859646" y="750.2923976608188" transform="rotate(45, 133.33333333333331, 755.5555555555557)"></rect><rect width="10.526315789473685" height="10.526315789473685" x="172.51461988304092" y="750.2923976608188" fill="hsla(37, 91%, 55%, 1.00)" stroke="none" transform="rotate(45, 177.77777777777777, 755.5555555555557)"></rect><rect width="10.526315789473685" height="10.526315789473685" x="216.95906432748538" y="750.2923976608188" transform="rotate(45, 222.22222222222223, 755.5555555555557)"></rect><rect width="10.526315789473685" height="10.526315789473685" x="261.40350877192986" y="750.2923976608188" transform="rotate(45, 266.6666666666667, 755.5555555555557)"></rect><rect width="10.526315789473685" height="10.526315789473685" x="305.8479532163743" y="750.2923976608188" fill="hsla(37, 91%, 55%, 1.00)" stroke="none" transform="rotate(45, 311.11111111111114, 755.5555555555557)"></rect><rect width="10.526315789473685" height="10.526315789473685" x="350.2923976608188" y="750.2923976608188" transform="rotate(45, 355.5555555555556, 755.5555555555557)"></rect><rect width="10.526315789473685" height="10.526315789473685" x="394.73684210526324" y="750.2923976608188" transform="rotate(45, 400.00000000000006, 755.5555555555557)"></rect><rect width="10.526315789473685" height="10.526315789473685" x="439.1812865497077" y="750.2923976608188" transform="rotate(45, 444.4444444444445, 755.5555555555557)"></rect><rect width="10.526315789473685" height="10.526315789473685" x="483.62573099415215" y="750.2923976608188" fill="hsla(37, 91%, 55%, 1.00)" stroke="none" transform="rotate(45, 488.88888888888897, 755.5555555555557)"></rect><rect width="10.526315789473685" height="10.526315789473685" x="528.0701754385965" y="750.2923976608188" transform="rotate(45, 533.3333333333334, 755.5555555555557)"></rect><rect width="10.526315789473685" height="10.526315789473685" x="572.514619883041" y="750.2923976608188" transform="rotate(45, 577.7777777777778, 755.5555555555557)"></rect><rect width="10.526315789473685" height="10.526315789473685" x="616.9590643274854" y="750.2923976608188" fill="hsla(37, 91%, 55%, 1.00)" stroke="none" transform="rotate(45, 622.2222222222223, 755.5555555555557)"></rect><rect width="10.526315789473685" height="10.526315789473685" x="661.4035087719299" y="750.2923976608188" transform="rotate(45, 666.6666666666667, 755.5555555555557)"></rect><rect width="10.526315789473685" height="10.526315789473685" x="705.8479532163743" y="750.2923976608188" transform="rotate(45, 711.1111111111112, 755.5555555555557)"></rect><rect width="10.526315789473685" height="10.526315789473685" x="750.2923976608188" y="750.2923976608188" transform="rotate(45, 755.5555555555557, 755.5555555555557)"></rect><rect width="10.526315789473685" height="10.526315789473685" x="794.7368421052632" y="750.2923976608188" transform="rotate(45, 800.0000000000001, 755.5555555555557)"></rect><rect width="10.526315789473685" height="10.526315789473685" x="-5.2631578947368425" y="794.7368421052632" transform="rotate(45, 0, 800.0000000000001)"></rect><rect width="10.526315789473685" height="10.526315789473685" x="39.1812865497076" y="794.7368421052632" transform="rotate(45, 44.44444444444444, 800.0000000000001)"></rect><rect width="10.526315789473685" height="10.526315789473685" x="83.62573099415204" y="794.7368421052632" transform="rotate(45, 88.88888888888889, 800.0000000000001)"></rect><rect width="10.526315789473685" height="10.526315789473685" x="128.07017543859646" y="794.7368421052632" transform="rotate(45, 133.33333333333331, 800.0000000000001)"></rect><rect width="10.526315789473685" height="10.526315789473685" x="172.51461988304092" y="794.7368421052632" transform="rotate(45, 177.77777777777777, 800.0000000000001)"></rect><rect width="10.526315789473685" height="10.526315789473685" x="216.95906432748538" y="794.7368421052632" transform="rotate(45, 222.22222222222223, 800.0000000000001)"></rect><rect width="10.526315789473685" height="10.526315789473685" x="261.40350877192986" y="794.7368421052632" transform="rotate(45, 266.6666666666667, 800.0000000000001)"></rect><rect width="10.526315789473685" height="10.526315789473685" x="305.8479532163743" y="794.7368421052632" transform="rotate(45, 311.11111111111114, 800.0000000000001)"></rect><rect width="10.526315789473685" height="10.526315789473685" x="350.2923976608188" y="794.7368421052632" transform="rotate(45, 355.5555555555556, 800.0000000000001)"></rect><rect width="10.526315789473685" height="10.526315789473685" x="394.73684210526324" y="794.7368421052632" transform="rotate(45, 400.00000000000006, 800.0000000000001)"></rect><rect width="10.526315789473685" height="10.526315789473685" x="439.1812865497077" y="794.7368421052632" transform="rotate(45, 444.4444444444445, 800.0000000000001)"></rect><rect width="10.526315789473685" height="10.526315789473685" x="483.62573099415215" y="794.7368421052632" transform="rotate(45, 488.88888888888897, 800.0000000000001)"></rect><rect width="10.526315789473685" height="10.526315789473685" x="528.0701754385965" y="794.7368421052632" transform="rotate(45, 533.3333333333334, 800.0000000000001)"></rect><rect width="10.526315789473685" height="10.526315789473685" x="572.514619883041" y="794.7368421052632" transform="rotate(45, 577.7777777777778, 800.0000000000001)"></rect><rect width="10.526315789473685" height="10.526315789473685" x="616.9590643274854" y="794.7368421052632" transform="rotate(45, 622.2222222222223, 800.0000000000001)"></rect><rect width="10.526315789473685" height="10.526315789473685" x="661.4035087719299" y="794.7368421052632" transform="rotate(45, 666.6666666666667, 800.0000000000001)"></rect><rect width="10.526315789473685" height="10.526315789473685" x="705.8479532163743" y="794.7368421052632" transform="rotate(45, 711.1111111111112, 800.0000000000001)"></rect><rect width="10.526315789473685" height="10.526315789473685" x="750.2923976608188" y="794.7368421052632" transform="rotate(45, 755.5555555555557, 800.0000000000001)"></rect><rect width="10.526315789473685" height="10.526315789473685" x="794.7368421052632" y="794.7368421052632" transform="rotate(45, 800.0000000000001, 800.0000000000001)"></rect></g></svg>